<svg width="0" height="0" class="hidden">
  <symbol xmlns="http://www.w3.org/2000/svg" shape-rendering="geometricPrecision" text-rendering="geometricPrecision" image-rendering="optimizeQuality" fill-rule="evenodd" clip-rule="evenodd" viewBox="0 0 312 511.42" id="chevron">
    <path fill-rule="nonzero" d="M35.54 0 312 252.82 29.84 511.42 0 478.8l246.54-225.94L5.7 32.62z"></path>
  </symbol>
  <symbol xmlns="http://www.w3.org/2000/svg" viewBox="0 0 24 24" id="music">
    <g>
      <g>
        <rect width="24" height="24" opacity="0"></rect>
        <path d="M19 15V4a1 1 0 0 0-.38-.78 1 1 0 0 0-.84-.2l-9 2A1 1 0 0 0 8 6v8.34a3.49 3.49 0 1 0 2 3.18 4.36 4.36 0 0 0 0-.52V6.8l7-1.55v7.09a3.49 3.49 0 1 0 2 3.17 4.57 4.57 0 0 0 0-.51z"></path>
      </g>
    </g>
  </symbol>
  <symbol version="1.1" id="menu" xmlns="http://www.w3.org/2000/svg" xmlns:xlink="http://www.w3.org/1999/xlink" x="0px" y="0px" xml:space="preserve" viewBox="0 0 122.88 103.17">
    <g>
      <path d="M26,0h70.87c7.15,0,13.65,2.93,18.36,7.64l0.22,0.24c4.58,4.69,7.42,11.1,7.42,18.13v51.16c0,7.15-2.93,13.65-7.64,18.36 c-4.71,4.71-11.21,7.64-18.36,7.64H26c-7.14,0-13.64-2.93-18.35-7.64H7.64C2.93,90.82,0,84.32,0,77.16V26 c0-7.13,2.92-13.63,7.64-18.35l0.02-0.03C12.38,2.92,18.87,0,26,0L26,0z M41.31,29.74h40.26c2.25,0,4.09,1.84,4.09,4.09l0,0 c0,2.25-1.84,4.09-4.09,4.09H41.31c-2.25,0-4.09-1.84-4.09-4.09l0,0C37.22,31.58,39.06,29.74,41.31,29.74L41.31,29.74L41.31,29.74z M41.31,65.25h40.26c2.25,0,4.09,1.84,4.09,4.09l0,0c0,2.25-1.84,4.09-4.09,4.09l-40.26,0c-2.25,0-4.09-1.84-4.09-4.09l0,0 C37.22,67.09,39.06,65.25,41.31,65.25L41.31,65.25L41.31,65.25z M41.31,47.5h40.26c2.25,0,4.09,1.84,4.09,4.09l0,0 c0,2.25-1.84,4.09-4.09,4.09H41.31c-2.25,0-4.09-1.84-4.09-4.09l0,0C37.22,49.34,39.06,47.5,41.31,47.5L41.31,47.5L41.31,47.5z M96.88,8.2H26c-4.9,0-9.35,2-12.57,5.22l-0.02,0.02C10.2,16.65,8.2,21.1,8.2,26v51.16c0,4.89,2.01,9.34,5.23,12.56l-0.01,0.01 c3.23,3.22,7.68,5.23,12.57,5.23h70.87c4.88,0,9.33-2.01,12.56-5.24c3.23-3.23,5.24-7.68,5.24-12.56V26c0-4.8-1.93-9.17-5.04-12.39 l-0.19-0.18C106.21,10.21,101.77,8.2,96.88,8.2L96.88,8.2z"></path>
    </g>
  </symbol>
  <symbol id="noise" xmlns="http://www.w3.org/2000/svg" viewBox="0 0 122.88 92.04">
    <title>noise</title>
    <path d="M90.14,23.41a5.14,5.14,0,0,1,8.78-3.63h0a5.13,5.13,0,0,1,1.51,3.63V68.69a5.14,5.14,0,0,1-8.78,3.64h0a5.12,5.12,0,0,1-1.51-3.63V23.41ZM0,18.22a5.12,5.12,0,0,1,1.51-3.63h0a5.15,5.15,0,0,1,8.78,3.64V73.83a5.16,5.16,0,0,1-1.51,3.64h0A5.15,5.15,0,0,1,0,73.83V18.22ZM22.59,5.14a5.13,5.13,0,0,1,1.5-3.63h0a5.14,5.14,0,0,1,8.77,3.63V86.9a5.14,5.14,0,0,1-8.77,3.64h0a5.11,5.11,0,0,1-1.5-3.63V5.14ZM67.64,33.93a5.13,5.13,0,0,1,1.5-3.63h0a5.14,5.14,0,0,1,7.26,0h0a5.14,5.14,0,0,1,1.5,3.63V58.16a5.15,5.15,0,0,1-1.5,3.64h0a5.13,5.13,0,0,1-7.26,0h0a5.11,5.11,0,0,1-1.5-3.63V33.93ZM45.13,18.25a5.14,5.14,0,0,1,1.51-3.64h0a5.15,5.15,0,0,1,8.78,3.64V73.86a5.12,5.12,0,0,1-1.51,3.63h0a5.15,5.15,0,0,1-8.78-3.64V18.25ZM112.7,12a5.09,5.09,0,0,1,1.49-3.61l.11-.1a5,5,0,0,1,7.1.1A5.13,5.13,0,0,1,122.88,12v68a5.17,5.17,0,0,1-1.48,3.62l-.11.1a5,5,0,0,1-7.1-.1,5.14,5.14,0,0,1-1.49-3.62V12Z"></path>
  </symbol>
</svg>